HIERARCHY
ROOT Hips
{
	OFFSET -3.958830 18.904000 13.208200
	CHANNELS 6 Xposition Yposition Zposition Zrotation Yrotation Xrotation 
	JOINT LHipJoint
	{
		OFFSET 0.000000 0.000000 0.000000
		CHANNELS 3 Zrotation Yrotation Xrotation
		JOINT LeftUpLeg
		{
			OFFSET 1.800000 -1.400000 0.085000
			CHANNELS 3 Zrotation Yrotation Xrotation
			JOINT LeftLeg
			{
				OFFSET 2.215000 -6.000000 0.000000
				CHANNELS 3 Zrotation Yrotation Xrotation
				JOINT LeftFoot
				{
					OFFSET 2.500000 -6.900000 0.000000
					CHANNELS 3 Zrotation Yrotation Xrotation
					JOINT LeftToeBase
					{
						OFFSET 0.200000 -0.500000 1.950000
						CHANNELS 3 Zrotation Yrotation Xrotation
						End Site
						{
							OFFSET 0.000000 0.000000 0.000000
						}
					}
				}
			}
		}
	}
	JOINT RHipJoint
	{
		OFFSET 0.000000 0.000000 0.000000
		CHANNELS 3 Zrotation Yrotation Xrotation
		JOINT RightUpLeg
		{
			OFFSET -1.800000 -1.400000 0.085000
			CHANNELS 3 Zrotation Yrotation Xrotation
			JOINT RightLeg
			{
				OFFSET -2.215000 -6.000000 0.000000
				CHANNELS 3 Zrotation Yrotation Xrotation
				JOINT RightFoot
				{
					OFFSET -2.500000 -6.900000 0.000000
					CHANNELS 3 Zrotation Yrotation Xrotation
					JOINT RightToeBase
					{
						OFFSET -0.200000 -0.500000 1.950000
						CHANNELS 3 Zrotation Yrotation Xrotation
						End Site
						{
							OFFSET 0.000000 0.000000 0.000000
						}
					}
				}
			}
		}
	}
	JOINT LowerBack
	{
		OFFSET 0.000000 0.000000 0.000000
		CHANNELS 3 Zrotation Yrotation Xrotation
		JOINT Spine
		{
			OFFSET -0.087000 1.940000 -0.288900
			CHANNELS 3 Zrotation Yrotation Xrotation
			JOINT Spine1
			{
				OFFSET 0.000000 1.950000 0.060000
				CHANNELS 3 Zrotation Yrotation Xrotation
				JOINT Neck
				{
					OFFSET 0.000000 0.000000 0.000000
					CHANNELS 3 Zrotation Yrotation Xrotation
					JOINT Neck1
					{
						OFFSET 0.000000 1.600000 0.340000
						CHANNELS 3 Zrotation Yrotation Xrotation
						JOINT Head
						{
							OFFSET 0.000000 1.667000 -0.240000
							CHANNELS 3 Zrotation Yrotation Xrotation
							End Site
							{
								OFFSET 0.000000 0.000000 0.000000
							}
						}
					}
				}
				JOINT LeftShoulder
				{
					OFFSET 0.000000 0.000000 0.000000
					CHANNELS 3 Zrotation Yrotation Xrotation
					JOINT LeftArm
					{
						OFFSET 2.700000 1.550000 -0.730000
						CHANNELS 3 Zrotation Yrotation Xrotation
						JOINT LeftForeArm
						{
							OFFSET 5.450000 0.000000 0.000000
							CHANNELS 3 Zrotation Yrotation Xrotation
							JOINT LeftHand
							{
								OFFSET 3.450000 0.000000 0.000000
								CHANNELS 3 Zrotation Yrotation Xrotation
								JOINT LeftHandIndex1
								{
									OFFSET 0.750000 0.000000 0.000000
									CHANNELS 3 Zrotation Yrotation Xrotation
									End Site
									{
										OFFSET 0.000000 0.000000 0.000000
									}
								}
							}
						}
					}
				}
				JOINT RightShoulder
				{
					OFFSET 0.000000 0.000000 0.000000
					CHANNELS 3 Zrotation Yrotation Xrotation
					JOINT RightArm
					{
						OFFSET -2.700000 1.550000 -0.730000
						CHANNELS 3 Zrotation Yrotation Xrotation
						JOINT RightForeArm
						{
							OFFSET -5.450000 0.000000 0.000000
							CHANNELS 3 Zrotation Yrotation Xrotation
							JOINT RightHand
							{
								OFFSET -3.450000 0.000000 0.000000
								CHANNELS 3 Zrotation Yrotation Xrotation
								JOINT RightHandIndex1
								{
									OFFSET -0.750000 0.000000 0.000000
									CHANNELS 3 Zrotation Yrotation Xrotation
									End Site
									{
										OFFSET 0.000000 0.000000 0.000000
									}
								}
							}
						}
					}
				}
			}
		}
	}
}
MOTION
Frames: 10
Frame Time: 0.016667
0.081540 16.700820 -3.522950 -6.666719 -8.824966 -14.379804 -15.531242 12.678933 2.760747 17.272837 -7.029329 -16.804771 -8.184657 14.651785 49.556060 0.265745 10.502275 1.156023 0.232700 -0.233440 -0.147700 18.358709 -7.126337 5.645261 -16.974483 8.408172 -59.727608 -1.285310 -22.531334 90.284877 -2.993279 -14.867592 0.220918 -0.181440 0.544480 0.105370 -3.183315 -5.577139 -9.301308 10.308817 -12.909227 57.256184 -1.267664 -8.090079 -9.532523 3.113290 -11.277498 -14.513480 -28.501108 13.910945 33.479382 0.323440 2.867470 -24.920780 -29.056357 -17.539429 4.786388 -24.254267 4.488624 -14.809388 -18.000940 -82.100014 6.668857 -3.227931 3.055563 1.188180 0.009000 -0.077190 0.382480 24.319607 23.030343 11.401592 32.055452 -2.620105 -10.080844 4.823924 28.618171 1.060163 1.528137 -0.881925 -0.511860 0.671530 0.274230 -0.278200 
0.086500 16.669710 -3.487050 -6.374090 -9.215037 -14.296590 -15.526190 12.723848 2.834052 17.056197 -7.055950 -16.945432 -8.350870 14.883060 50.124206 0.365430 10.522934 1.136827 0.341300 -0.070420 -0.082030 18.344286 -7.210995 5.524718 -16.606469 8.406485 -58.600017 -2.176375 -21.604844 90.168341 -3.010076 -14.684078 0.272651 -0.125670 0.470020 0.112250 -3.169163 -5.592535 -9.292404 11.108782 -12.914555 55.169535 -1.637176 -7.830932 -9.153863 3.343011 -11.026637 -15.088841 -29.583030 14.891373 36.137325 -0.318630 3.347430 -24.334780 -29.958646 -18.562908 4.839600 -26.274639 3.393544 -15.408886 -10.247511 -72.442790 0.556750 -3.125361 3.002678 1.164460 -0.029520 0.005260 0.427870 24.817590 24.047739 11.801879 33.324568 -2.515774 -9.931974 3.770016 26.747357 0.636850 1.577643 -0.904207 -0.429420 0.650500 0.176620 -0.244750 
0.080200 16.598420 -3.407720 -5.108421 -10.075073 -13.510367 -15.525620 12.676358 2.998177 16.298122 -7.132628 -17.784167 -9.085820 15.783161 51.520215 0.446245 10.848860 1.012441 0.436310 0.075620 -0.040160 18.334936 -7.280205 5.395379 -16.739914 8.559169 -57.337382 -3.341596 -20.336630 90.152513 -2.995842 -14.499518 0.323440 -0.039920 0.454200 0.119770 -3.162274 -5.521275 -9.317722 11.766684 -12.199028 50.248981 -1.957542 -7.381939 -8.118174 3.169988 -10.796153 -15.476928 -30.945125 16.031219 39.142862 -1.078000 3.472770 -22.602880 -32.083412 -19.424960 4.785509 -29.008666 1.054419 -14.212650 -4.404419 -54.888301 -2.163296 -3.136326 2.883921 1.139500 -0.017100 0.045880 0.462690 27.291814 24.830482 11.714865 33.734250 -1.071889 -8.680314 3.060163 22.119885 0.248208 1.601133 -0.892054 -0.388570 0.679940 0.132660 -0.223470 
0.082750 16.540500 -3.307100 -4.134435 -10.874702 -13.051741 -15.481253 12.809489 3.140029 15.408740 -6.979482 -17.829853 -9.335391 16.187266 52.153510 0.477737 10.976512 0.951445 0.490870 0.129660 0.041520 18.314021 -7.601885 5.069217 -16.368186 8.340218 -53.755211 -4.376460 -18.767125 88.726872 -2.908665 -14.090499 0.413004 -0.006140 0.398440 0.113290 -3.181800 -5.398539 -9.280442 12.968149 -11.836138 45.190288 -3.030170 -6.926610 -7.607027 3.574913 -9.422413 -16.638707 -30.067163 17.140994 44.865700 -2.664050 4.910990 -19.002070 -34.399051 -20.956258 5.453035 -30.762830 -0.977366 -10.276482 -0.863105 -35.240483 -2.306719 -3.194484 2.736917 1.148880 -0.015230 0.079230 0.457790 28.742834 25.703855 11.761711 36.576149 -1.463184 -9.088577 2.550492 21.554161 -0.026794 1.596476 -0.909924 -0.379110 0.661450 0.088790 -0.256000 
0.056720 16.478340 -3.185510 -2.911253 -11.752339 -12.186893 -15.411459 12.872790 3.321396 14.576867 -6.689748 -18.259724 -10.012397 16.947649 52.668569 0.483614 11.253913 0.850625 0.448330 0.041330 0.076060 18.319987 -7.992484 4.693985 -16.095126 8.166376 -49.651649 -4.938918 -17.154138 86.168432 -2.742007 -13.578699 0.495829 -0.029340 0.399830 0.134650 -3.276293 -5.080657 -9.245189 13.635914 -11.131669 39.386815 -4.398926 -6.534356 -6.531132 3.800580 -7.952871 -16.858421 -26.734395 16.872581 48.901479 -4.755080 6.734550 -15.439360 -35.170788 -21.414275 6.058775 -31.922337 -1.999597 -5.177710 -0.683834 -19.532980 -1.651270 -3.396771 2.532124 1.165720 0.033450 0.055760 0.407010 28.767933 25.424278 11.063582 40.859958 -0.706748 -10.088667 3.906449 23.539845 -0.109771 1.563354 -0.920881 -0.419630 0.629710 0.129040 -0.315410 
0.016160 16.402640 -3.054690 -1.743750 -13.355312 -10.534578 -15.307096 12.721915 3.591586 14.641499 -6.215417 -19.748563 -11.803359 18.682591 53.260339 0.596045 11.780249 0.712939 0.386350 -0.048110 0.061450 18.389317 -8.415469 4.256131 -15.687395 8.127864 -45.249784 -4.633146 -15.548361 81.461995 -2.470144 -12.798339 0.674492 -0.048910 0.475390 0.142610 -3.533974 -4.427373 -9.148277 14.746701 -10.337886 31.943823 -6.030413 -6.050328 -3.377481 3.654935 -7.582382 -16.227952 -24.580735 16.513347 48.740420 -5.289550 7.887720 -11.810370 -33.681176 -21.189824 6.706803 -34.689094 -2.105912 -2.032742 -0.855953 -10.440016 -1.398639 -3.596453 2.406516 1.114890 0.118170 -0.014710 0.389330 27.172690 25.004395 10.246950 45.551348 1.832719 -10.999689 5.890068 26.680433 -0.200153 1.546019 -0.957023 -0.461160 0.629780 0.164840 -0.330290 
-0.062800 16.338980 -2.951020 -0.546529 -15.288803 -8.537014 -15.218253 12.558901 3.753751 14.883894 -5.184705 -20.753640 -13.862095 20.361207 52.361316 0.663838 12.149409 0.651836 0.210970 -0.215400 -0.109010 18.466387 -8.781358 3.872798 -15.354348 8.241788 -41.218872 -3.134251 -14.340104 75.197923 -2.071702 -11.881012 0.929959 -0.085080 0.674400 0.107990 -3.798524 -3.774760 -8.946715 15.259626 -8.693034 24.296432 -6.580513 -5.162946 0.192124 3.042963 -7.921983 -14.870810 -23.111155 16.106198 45.346428 -4.869760 8.554590 -6.397050 -30.081889 -19.767734 7.013328 -38.790575 -2.598654 -0.360249 -1.209756 -5.974587 -1.233962 -3.840194 2.350202 0.990510 0.279280 -0.191720 0.377560 24.477465 23.842071 9.397122 49.961285 5.198362 -11.322659 8.478265 30.528036 -0.088021 1.512331 -0.997083 -0.557380 0.676140 0.275940 -0.305020 
-0.133590 16.323540 -2.864670 0.596936 -16.410726 -7.574969 -15.150552 12.674077 3.681457 14.097991 -4.089835 -19.963068 -14.329884 20.357617 50.297030 0.609774 12.000895 0.760001 0.092670 -0.381330 -0.195240 18.492953 -9.234936 3.451509 -15.287480 7.800622 -36.621528 -1.726129 -13.273642 68.985479 -1.696174 -10.936812 1.188887 -0.123530 0.824420 0.098190 -3.931923 -3.366971 -8.555193 15.311728 -7.304433 18.889512 -6.187434 -4.652071 2.744514 2.361455 -8.562234 -13.613824 -22.821150 15.598487 41.661492 -4.897120 8.521810 -2.318320 -26.186725 -17.224987 6.926516 -43.215542 -2.745047 0.027119 -1.042126 -5.369794 -1.239065 -4.003788 2.355027 0.904310 0.397010 -0.340530 0.368400 21.771370 21.866012 8.671680 53.179910 7.880328 -11.430609 13.794214 36.374258 1.085721 1.496643 -1.087726 -0.638160 0.692970 0.348490 -0.303200 
-0.205670 16.353500 -2.800330 1.581319 -17.045319 -7.789661 -15.085060 12.975165 3.547736 13.158069 -2.987528 -17.796930 -14.464396 19.591426 47.213509 0.506643 11.535748 0.956904 0.008360 -0.508070 -0.269890 18.471394 -9.785928 2.997327 -15.181898 6.949824 -31.218175 -0.534393 -12.118075 62.329354 -1.349977 -9.877474 1.499616 -0.170760 0.939860 0.113540 -3.947764 -3.080581 -8.150842 14.842919 -6.088829 15.711572 -5.507551 -4.171268 4.455810 1.840138 -8.743644 -13.184579 -22.342761 15.468437 40.395548 -4.197100 8.252680 0.664970 -23.288925 -15.048914 7.043649 -45.561272 -1.745693 -0.450754 -1.597995 -7.397186 -1.371515 -4.090949 2.361687 0.860330 0.473640 -0.431460 0.371820 19.896929 20.185434 8.441642 54.757515 9.576904 -11.145815 21.029391 44.159182 3.882307 1.478326 -1.192708 -0.681000 0.701040 0.408610 -0.290780 
-0.261610 16.433850 -2.749470 2.395675 -17.047957 -8.448984 -15.007397 13.352080 3.368062 11.821748 -2.093929 -15.076172 -13.446322 18.135961 44.456066 0.377903 10.889328 1.192486 -0.113370 -0.622410 -0.401520 18.442297 -10.332414 2.610602 -15.869818 5.601000 -26.170828 1.066376 -11.505841 55.270638 -1.003391 -8.827154 1.841700 -0.228490 1.043730 0.101000 -3.952755 -2.903052 -7.792876 14.705697 -5.147721 13.799321 -4.934951 -3.805211 5.596263 1.514674 -8.974230 -13.405419 -22.935497 15.699108 40.822479 -3.540650 7.651230 3.484310 -22.536258 -13.742611 7.320322 -44.691926 0.154285 -1.397650 -2.917395 -11.225317 -1.461796 -4.146374 2.331699 0.807130 0.538900 -0.510220 0.352210 19.865321 19.334126 8.851310 53.862194 9.646874 -10.597733 29.626424 53.919594 9.042602 1.456858 -1.264057 -0.708290 0.728870 0.501680 -0.257900 
